<svg xmlns="http://www.w3.org/2000/svg" width="26" height="26" viewBox="0 0 26 26">
  <metadata><?xpacket begin="﻿" id="W5M0MpCehiHzreSzNTczkc9d"?>
<x:xmpmeta xmlns:x="adobe:ns:meta/" x:xmptk="Adobe XMP Core 5.6-c142 79.160924, 2017/07/13-01:06:39        ">
   <rdf:RDF xmlns:rdf="http://www.w3.org/1999/02/22-rdf-syntax-ns#">
      <rdf:Description rdf:about=""/>
   </rdf:RDF>
</x:xmpmeta>
                                                                                                    
                                                                                                    
                                                                                                    
                                                                                                    
                                                                                                    
                                                                                                    
                                                                                                    
                                                                                                    
                                                                                                    
                                                                                                    
                                                                                                    
                                                                                                    
                                                                                                    
                                                                                                    
                                                                                                    
                                                                                                    
                                                                                                    
                                                                                                    
                                                                                                    
                                                                                                    
                           
<?xpacket end="w"?></metadata>
<defs>
    <style>
      .cls-1 {
        fill: #7cb744;
        fill-rule: evenodd;
      }
    </style>
  </defs>
  <path class="cls-1" d="M246.572,522.77H245.13v-5.021a2.036,2.036,0,0,0-2.03-2.038h-0.626v-5.234a1.822,1.822,0,0,0-1.817-1.824h-5.066v-4.209a0.429,0.429,0,0,0-.428-0.429h-0.736v-0.641a1.409,1.409,0,0,0,.976-1.341,3.931,3.931,0,0,0-1.089-1.9,0.426,0.426,0,0,0-.628,0,3.931,3.931,0,0,0-1.089,1.9,1.41,1.41,0,0,0,.975,1.341v0.641h-0.735a0.429,0.429,0,0,0-.428.429v4.209h-5.066a1.822,1.822,0,0,0-1.817,1.824v3.775a0.428,0.428,0,1,0,.855,0v-3.775a0.965,0.965,0,0,1,.962-0.966h13.314a0.965,0.965,0,0,1,.962.966v5.234H224.9a2.037,2.037,0,0,0-2.031,2.038v3.521a0.428,0.428,0,1,0,.856,0v-3.521a1.179,1.179,0,0,1,1.175-1.18h18.2a1.179,1.179,0,0,1,1.175,1.18v5.021H221.427a0.428,0.428,0,0,0-.427.429,2.8,2.8,0,0,0,2.791,2.8h20.418A2.8,2.8,0,0,0,247,523.2,0.428,0.428,0,0,0,246.572,522.77Zm-13.12-20.737a2.6,2.6,0,0,1,.548-0.942,2.615,2.615,0,0,1,.548.942A0.548,0.548,0,1,1,233.452,502.033Zm1.284,6.62h-1.472v-3.779h1.472v3.779Zm9.473,16.489H223.791a1.941,1.941,0,0,1-1.888-1.514H246.1A1.941,1.941,0,0,1,244.209,525.142Zm-4.028-14.378a1.973,1.973,0,0,0-1.389.75,1.215,1.215,0,0,1-.738.487,0.985,0.985,0,0,1-.61-0.482,1.691,1.691,0,0,0-1.244-.794,1.842,1.842,0,0,0-1.341.721,1.278,1.278,0,0,1-.8.515h0a1.223,1.223,0,0,1-.782-0.516,1.915,1.915,0,0,0-1.354-.758h-0.012a1.951,1.951,0,0,0-1.4.83,1.192,1.192,0,0,1-.729.529h0a1.161,1.161,0,0,1-.717-0.531,1.829,1.829,0,0,0-1.328-.805h-0.007a0.429,0.429,0,0,0,0,.858h0a1.141,1.141,0,0,1,.69.517,1.863,1.863,0,0,0,1.354.819h0a1.9,1.9,0,0,0,1.36-.808,1.235,1.235,0,0,1,.773-0.551,1.18,1.18,0,0,1,.746.5,1.958,1.958,0,0,0,1.394.775h0a2.013,2.013,0,0,0,1.4-.763,1.2,1.2,0,0,1,.7-0.473h0.011a0.981,0.981,0,0,1,.609.482,1.7,1.7,0,0,0,1.244.794,1.9,1.9,0,0,0,1.363-.733,1.247,1.247,0,0,1,.774-0.5A0.429,0.429,0,0,0,240.181,510.764Zm2.891,7.1a1.984,1.984,0,0,0-1.438.778,1.466,1.466,0,0,1-.9.575,1.094,1.094,0,0,1-.713-0.5,1.871,1.871,0,0,0-1.367-.805h-0.025a2.148,2.148,0,0,0-1.467.81,1.386,1.386,0,0,1-.836.544,1.1,1.1,0,0,1-.7-0.543,1.823,1.823,0,0,0-1.331-.854,1.982,1.982,0,0,0-1.439.778,1.456,1.456,0,0,1-.907.575h0a1.364,1.364,0,0,1-.885-0.576,2.062,2.062,0,0,0-1.453-.818H229.6a2.108,2.108,0,0,0-1.5.895,1.323,1.323,0,0,1-.827.592h0a1.29,1.29,0,0,1-.814-0.594,1.964,1.964,0,0,0-1.431-.868,0.429,0.429,0,0,0,0,.858h0a1.243,1.243,0,0,1,.787.58,2.008,2.008,0,0,0,1.451.882h0a2.012,2.012,0,0,0,1.458-.871,1.371,1.371,0,0,1,.875-0.616h0.005a1.326,1.326,0,0,1,.84.558,2.111,2.111,0,0,0,1.5.836h0a2.17,2.17,0,0,0,1.508-.824,1.3,1.3,0,0,1,.812-0.529,1.1,1.1,0,0,1,.7.542,1.823,1.823,0,0,0,1.332.854,2.024,2.024,0,0,0,1.462-.79,1.412,1.412,0,0,1,.875-0.562,1.114,1.114,0,0,1,.746.518,1.832,1.832,0,0,0,1.341.791h0.006a2.174,2.174,0,0,0,1.509-.824,1.3,1.3,0,0,1,.811-0.529A0.429,0.429,0,0,0,243.072,517.868Z" transform="translate(-221 -500)"/>
</svg>
