<svg xmlns="http://www.w3.org/2000/svg" width="22" height="30" viewBox="0 0 22 30">
  <metadata><?xpacket begin="﻿" id="W5M0MpCehiHzreSzNTczkc9d"?>
<x:xmpmeta xmlns:x="adobe:ns:meta/" x:xmptk="Adobe XMP Core 5.6-c142 79.160924, 2017/07/13-01:06:39        ">
   <rdf:RDF xmlns:rdf="http://www.w3.org/1999/02/22-rdf-syntax-ns#">
      <rdf:Description rdf:about=""/>
   </rdf:RDF>
</x:xmpmeta>
                                                                                                    
                                                                                                    
                                                                                                    
                                                                                                    
                                                                                                    
                                                                                                    
                                                                                                    
                                                                                                    
                                                                                                    
                                                                                                    
                                                                                                    
                                                                                                    
                                                                                                    
                                                                                                    
                                                                                                    
                                                                                                    
                                                                                                    
                                                                                                    
                                                                                                    
                                                                                                    
                           
<?xpacket end="w"?></metadata>
<defs>
    <style>
      .cls-1 {
        fill: #b4d1d2;
        fill-rule: evenodd;
      }
    </style>
  </defs>
  <path id="Forma_1_copy" data-name="Forma 1 copy" class="cls-1" d="M241.678,428.266a2.929,2.929,0,1,0-2.667-2.917A2.8,2.8,0,0,0,241.678,428.266Zm0-5.026a2.117,2.117,0,1,1-1.928,2.109A2.027,2.027,0,0,1,241.678,423.24Zm3.536,9.733v5.676h-0.786v-6.487h-0.785v17.027l-1.357,0a0.427,0.427,0,0,1-.238-0.261v-6.424a0.371,0.371,0,1,0-.739,0v6.424a0.251,0.251,0,0,1-.238.261l-1.357,0V432.162h-0.785v6.487l-0.833.037v-6.869a2.039,2.039,0,0,1,2.2-2.083h2.766a2.038,2.038,0,0,1,2.2,2.083,0.371,0.371,0,1,0,.739,0,2.816,2.816,0,0,0-2.938-2.9H240.3a2.816,2.816,0,0,0-2.938,2.9v6.869a0.658,0.658,0,0,0,.786.774h0.786v9.729a1.122,1.122,0,0,0,1.283.811h0.859a0.908,0.908,0,0,1,1.215,0h0.859a1.122,1.122,0,0,0,1.283-.811V439.46h0.786a0.658,0.658,0,0,0,.786-0.775v-5.712h-0.786Zm-13.06-12.968-7.7,0a0.448,0.448,0,0,0-.452.447l0.127,29.105a0.453,0.453,0,0,0,.456.448l7.607-.088a0.455,0.455,0,0,0,.32-0.131,0.447,0.447,0,0,0,.132-0.316l-0.033-29.013a0.447,0.447,0,0,0-.135-0.316A0.456,0.456,0,0,0,232.154,420.005Zm-0.327,29.1-6.793,0-0.123-28.21,6.793,0Zm-4.474-26.447a1.332,1.332,0,0,0,.009,1.9,1.377,1.377,0,0,0,1.925,0,1.332,1.332,0,0,0-.008-1.9A1.378,1.378,0,0,0,227.353,422.662Zm1.289,1.267a0.458,0.458,0,0,1-.641,0,0.443,0.443,0,0,1,0-.633,0.458,0.458,0,0,1,.641,0A0.443,0.443,0,0,1,228.642,423.929Zm-4.16,2.66,0-.895H226.4l0,0.895h-1.926Zm0.009,1.9,0-.9,2.567,0,0,0.895Zm0.008,1.9,0-.895h1.925l0,0.9H224.5Zm0.008,1.9,0-.9,2.567,0,0,0.9Zm0.008,1.9,0-.895,1.926,0,0,0.894h-1.926Zm0.008,1.9,0-.894h2.567l0,0.9Zm0.008,1.9,0-.894h1.925l0,0.895h-1.925Zm0.009,1.9,0-.895,2.567,0,0,0.895Zm0.008,1.9,0-.895,1.926,0,0,0.894h-1.925Zm0.009,1.9,0-.895h2.567l0,0.895h-2.567Zm0.009,1.9,0-.894h1.925l0,0.895Zm0.007,1.9,0-.9h2.567l0,0.895h-2.567Z" transform="translate(-224 -420)"/>
</svg>
