<?xml version="1.0" encoding="iso-8859-1"?>
<!-- Generator: Adobe Illustrator 21.0.0, SVG Export Plug-In . SVG Version: 6.00 Build 0)  -->
<svg xmlns="http://www.w3.org/2000/svg" xmlns:xlink="http://www.w3.org/1999/xlink" version="1.1" id="Capa_1" x="0px" y="0px" viewBox="0 0 512.071 512.071" style="enable-background:new 0 0 512.071 512.071;" xml:space="preserve" width="512" height="512">
<defs>
    <style>
      path {
        fill: #fff;
        fill-rule: evenodd;
      }
    </style>
  </defs>
<g>
	<path d="M334.18,421.647c30.477-36.474,75.64-44.727,116.516-64.153c8.737-4.154,2.298-17.702-6.439-13.548   c-43.143,20.512-89.405,29.569-121.587,68.083c-31.542,37.747-80.754,67.68-125.375,76.257   c-43.27,8.318-103.391,14.371-146.189-3.292c87.728,14.303,180.288-17.461,243.795-78.622   c30.719-29.584,65.173-51.792,102.792-71.158c28.434-14.638,50.11-34.308,62.685-56.885c8.176-14.679,12.018-29.7,11.49-44.434   c7.4,4.905,15.634,11.862,19.69,19.985c9.465,18.956,9.103,48.092-20.3,73.017c-7.405,6.278,2.369,17.656,9.699,11.442   c29.681-25.161,39.11-60.943,24.021-91.16c-8.627-17.275-28.478-28.512-36.328-32.424c-0.793-2.606-1.722-5.194-2.805-7.759   c-11.064-26.217-59.639-62.591-98.44-88.489c-11.023-7.357-24.475-8.764-36.331-4.784L256.734,3.291   c-5.403-8.025-17.846,0.35-12.443,8.376l73.618,109.361c-14.064,11.601-23.635,28.739-36.501,41.698   c-11.727,11.813-25.539,20.52-42.063,23.653c-1.229-17.396-6.757-42.113-28.257-43.13L115.711,3.257   c-5.446-7.996-17.844,0.45-12.396,8.445l93.273,136.904c-7.051,6.526-11.949,19.025-15.651,39.693   c-1.706,9.522,13.06,12.168,14.765,2.645c1.318-7.355,4.377-35.266,17.182-32.326c8.495,1.954,12.03,22.75,11.744,36.182   c-0.001,0.034,0.003,0.067,0.003,0.101c0,0.037-0.005,0.073-0.005,0.111c0.186,35.48-4.699,86.487-29.018,127.999   c-14.366,24.523-28.993,34.317-29.32,34.533c-0.937,0.603-1.688,1.383-2.252,2.264c-22.023,13.738-41.039,16.073-53.948,15.275   c0.088-0.043,0.176-0.086,0.264-0.129c11.117-5.435,21.36-13.491,30.667-24.077l11.319,5.206   c8.803,4.046,15.051-9.588,6.269-13.628l-8.093-3.722c6.166-8.831,11.396-18.281,15.945-28.036l16.214,5.659   c9.12,3.183,14.084-10.972,4.943-14.162l-15.246-5.321c3.859-9.833,7.294-20.334,10.256-31.371l16.744,4.513   c9.157,2.469,13.283-11.955,3.903-14.483l-17.084-4.604c1.979-8.905,3.674-18.079,5.042-27.471   c1.394-9.574-13.449-11.736-14.844-2.162c-5.45,37.418-15.834,76.376-37.583,107.858c-22.454,32.503-60.718,43.35-93.615,62.724   C18.453,407.617-5.395,426.058,1.07,454.142c4.902,21.293,20.369,34.027,40.615,43.16c48.584,21.918,107.743,15.46,158.44,5.714   C247.936,493.825,300.555,461.886,334.18,421.647z M452.025,212.827c7.801,18.486,6.158,38.612-4.753,58.202   c-10.594,19.021-29.663,36.497-53.851,49.462c-22.516-64.435-15.277-146.675-11.957-174.066   C420.473,174.293,445.758,197.979,452.025,212.827z M312.189,150.17c3.866-4.721,7.863-9.603,12.094-14.487   c8.737-10.087,23.697-12.107,34.795-4.7c1.722,1.149,3.42,2.292,5.102,3.431c1.04,4.588,3.635,21.265-8.294,38.659   c-17.218,25.107-57.626,40.926-116.909,45.819c0.359-6.024,0.554-11.826,0.622-17.336   C274.8,195.815,292.996,173.607,312.189,150.17z M237.742,234.043c0.03-0.002,0.06-0.001,0.09-0.003   c60.948-4.7,102.966-20.059,125.144-45.679c-1.596,38.954,0.341,92.63,16.853,138.711c0.055,0.154,0.134,0.292,0.198,0.44   c-8.431,4.464-16.312,8.816-23.848,13.25c-17.09-11.495-46.529-22.089-94.742-15.791c-19.861,2.594-40.408,7.957-58.886,15.115   c1.784-2.623,3.584-5.429,5.381-8.448C226.251,300.861,234.47,265.444,237.742,234.043z M52.799,404.799   c10.196-6.005,22.355-12.363,35.437-18.925c4.013,1.48,13.393,4.31,26.471,4.31c15.736,0,36.816-4.102,60.296-19.588   c40.235-26.537,120.952-45.512,166.791-20.983c-19.313,12.467-37.087,26.489-57.3,45.955   c-43.641,42.029-99.828,68.774-158.209,75.309c-56.963,6.377-106.579-2.64-110.598-20.1   C12.168,435.49,22.574,422.599,52.799,404.799z"/>
	<path d="M318.513,35.479h142c9.674,0,9.674-15,0-15h-142C308.838,20.479,308.838,35.479,318.513,35.479z"/>
	<path d="M420.013,95.979c0,4.142,3.358,7.5,7.5,7.5h77c9.674,0,9.674-15,0-15h-77C423.37,88.479,420.013,91.837,420.013,95.979z"/>
	<path d="M504.513,413.479h-77c-9.674,0-9.674,15,0,15h77C514.187,428.479,514.187,413.479,504.513,413.479z"/>
	<path d="M349.513,476.294c-0.012,0-0.023,0-0.035,0l-41.5,0.186c-9.537,0.043-9.509,15,0.067,15l41.5-0.186   C359.2,491.25,359.165,476.294,349.513,476.294z"/>
	<path d="M478.833,476.203c-0.007,0-0.016,0-0.023,0l-90.668,0.276c-9.537,0.029-9.531,15,0.046,15l90.668-0.276   C488.516,491.174,488.493,476.203,478.833,476.203z"/>
</g>















</svg>
