<svg xmlns="http://www.w3.org/2000/svg" width="44" height="34.875" viewBox="0 0 44 34.875">
  <metadata><?xpacket begin="﻿" id="W5M0MpCehiHzreSzNTczkc9d"?>
<x:xmpmeta xmlns:x="adobe:ns:meta/" x:xmptk="Adobe XMP Core 5.6-c142 79.160924, 2017/07/13-01:06:39        ">
   <rdf:RDF xmlns:rdf="http://www.w3.org/1999/02/22-rdf-syntax-ns#">
      <rdf:Description rdf:about=""/>
   </rdf:RDF>
</x:xmpmeta>
                                                                                                    
                                                                                                    
                                                                                                    
                                                                                                    
                                                                                                    
                                                                                                    
                                                                                                    
                                                                                                    
                                                                                                    
                                                                                                    
                                                                                                    
                                                                                                    
                                                                                                    
                                                                                                    
                                                                                                    
                                                                                                    
                                                                                                    
                                                                                                    
                                                                                                    
                                                                                                    
                           
<?xpacket end="w"?></metadata>
<defs>
    <style>
      .cls-1 {
        fill: #fff;
        fill-rule: evenodd;
      }
    </style>
  </defs>
  <path id="Forma_1_copy_5" data-name="Forma 1 copy 5" class="cls-1" d="M684,150.045a14.526,14.526,0,1,0,14.666,14.525A14.6,14.6,0,0,0,684,150.045Zm0,27.6a13.073,13.073,0,1,1,13.2-13.072A13.135,13.135,0,0,1,684,177.642Zm20.887-30.364a1.807,1.807,0,0,0-1.962.386,9.333,9.333,0,0,0-2.792,6.676v9.5a2.181,2.181,0,0,0,1.467,2.045v13.932a2.2,2.2,0,0,0,4.4,0v-30.9A1.775,1.775,0,0,0,704.886,147.278Zm-0.354,32.543a0.734,0.734,0,0,1-1.467,0v-13.8h1.467v13.8Zm0-15.251h-2.2a0.729,0.729,0,0,1-.733-0.726v-9.5a7.9,7.9,0,0,1,2.362-5.648,0.32,0.32,0,0,1,.228-0.1,0.377,0.377,0,0,1,.137.028,0.318,0.318,0,0,1,.206.306V164.57Zm-26.4-5.084a2.905,2.905,0,1,0,2.933,2.905A2.92,2.92,0,0,0,678.133,159.486Zm0,4.358a1.453,1.453,0,1,1,1.466-1.453A1.46,1.46,0,0,1,678.133,163.844Zm5.929-3.87-1.289-1.277a0.8,0.8,0,0,1-.24-0.576,2.281,2.281,0,0,0-2.289-2.266h-2.933a2.314,2.314,0,0,0-1.619.664l-2.755,2.729a2.242,2.242,0,0,0-.671,1.6v3.08a2.242,2.242,0,0,0,.671,1.6l1.289,1.277a0.805,0.805,0,0,1,.24.576,2.282,2.282,0,0,0,2.289,2.267h1.466a2.321,2.321,0,0,0,1.619-.664l2.022-2a0.832,0.832,0,0,1,.582-0.238,2.281,2.281,0,0,0,2.288-2.267v-2.905A2.237,2.237,0,0,0,684.062,159.974Zm-0.8,4.508a0.818,0.818,0,0,1-.822.814,2.318,2.318,0,0,0-1.619.664l-2.022,2a0.832,0.832,0,0,1-.582.238h-1.466a0.818,0.818,0,0,1-.822-0.814,2.241,2.241,0,0,0-.67-1.6l-1.29-1.277a0.8,0.8,0,0,1-.24-0.576v-3.08a0.8,0.8,0,0,1,.24-0.576l2.756-2.73a0.836,0.836,0,0,1,.582-0.238h2.933a0.819,0.819,0,0,1,.822.814,2.241,2.241,0,0,0,.67,1.6L683.025,161a0.8,0.8,0,0,1,.241.576v2.905h0Zm7.851,1.753-2.933-2.905a0.739,0.739,0,0,0-1.037,0,0.724,0.724,0,0,0-.214.514V165.3a0.73,0.73,0,0,1-.734.726A2.19,2.19,0,0,0,684,168.2a0.729,0.729,0,0,1-.733.726,2.19,2.19,0,0,0-2.2,2.179,0.729,0.729,0,0,1-.733.726h-1.467a0.73,0.73,0,0,0-.733.727,0.72,0.72,0,0,0,.215.513l2.933,2.905a0.737,0.737,0,0,0,.518.213h1.467a2.189,2.189,0,0,0,2.2-2.179,0.729,0.729,0,0,1,.733-0.726,2.19,2.19,0,0,0,2.2-2.179,0.729,0.729,0,0,1,.733-0.726,2.19,2.19,0,0,0,2.2-2.179v-1.452A0.721,0.721,0,0,0,691.117,166.235Zm-1.251,1.966a0.73,0.73,0,0,1-.734.726,2.189,2.189,0,0,0-2.2,2.179,0.73,0.73,0,0,1-.734.726,2.19,2.19,0,0,0-2.2,2.179,0.73,0.73,0,0,1-.733.727H682.1l-1.485-1.471a2.187,2.187,0,0,0,1.915-2.161,0.729,0.729,0,0,1,.733-0.726,2.19,2.19,0,0,0,2.2-2.179,0.729,0.729,0,0,1,.733-0.726,2.194,2.194,0,0,0,2.182-1.9l1.485,1.47V168.2Zm5.044-7.652-0.126-.124-3.667-3.631-3.059-3.029a2.826,2.826,0,0,0-3.97,0,2.761,2.761,0,0,0,0,3.932l0.126,0.124,3.666,3.632,3.06,3.029a2.827,2.827,0,0,0,3.97,0A2.761,2.761,0,0,0,694.91,160.549Zm-9.695-5.839a1.352,1.352,0,0,1,.855-0.308h0a1.358,1.358,0,0,1,.948.389l1.808,1.79h-3.786A1.32,1.32,0,0,1,685.215,154.71Zm1.288,3.323H690.3l2.2,2.179H688.7Zm7.28,5.5a1.35,1.35,0,0,1-.855.308h0a1.359,1.359,0,0,1-.948-0.39l-1.808-1.789h3.786A1.32,1.32,0,0,1,693.783,163.536Zm-25.917-16.4v5.81H666.4v-5.81h-1.467v5.81h-1.466v-5.81H662v9.441a3.6,3.6,0,0,0,1.467,2.886v20.354a2.2,2.2,0,0,0,4.4,0V159.467a3.6,3.6,0,0,0,1.467-2.886V147.14h-1.467ZM666.4,179.821a0.734,0.734,0,0,1-1.467,0V160.212H666.4v19.609Zm1.466-23.24a2.2,2.2,0,0,1-4.4,0V154.4h4.4v2.179Z" transform="translate(-662 -147.125)"/>
</svg>
