<svg xmlns="http://www.w3.org/2000/svg" width="43.844" height="44" viewBox="0 0 43.844 44">
  <metadata><?xpacket begin="﻿" id="W5M0MpCehiHzreSzNTczkc9d"?>
<x:xmpmeta xmlns:x="adobe:ns:meta/" x:xmptk="Adobe XMP Core 5.6-c142 79.160924, 2017/07/13-01:06:39        ">
   <rdf:RDF xmlns:rdf="http://www.w3.org/1999/02/22-rdf-syntax-ns#">
      <rdf:Description rdf:about=""/>
   </rdf:RDF>
</x:xmpmeta>
                                                                                                    
                                                                                                    
                                                                                                    
                                                                                                    
                                                                                                    
                                                                                                    
                                                                                                    
                                                                                                    
                                                                                                    
                                                                                                    
                                                                                                    
                                                                                                    
                                                                                                    
                                                                                                    
                                                                                                    
                                                                                                    
                                                                                                    
                                                                                                    
                                                                                                    
                                                                                                    
                           
<?xpacket end="w"?></metadata>
<defs>
    <style>
      .cls-1 {
        fill: #fff;
        fill-rule: evenodd;
      }
    </style>
  </defs>
  <path id="Forma_1" data-name="Forma 1" class="cls-1" d="M697.963,167.421l1.309-2.627,0.232-.464a9.61,9.61,0,0,0,0-8.527l-1.616-3.243V141H670.112v11.56L668.5,155.8a9.608,9.608,0,0,0,0,8.526l0.232,0.465,1.309,2.627-1.491,3.441a12.538,12.538,0,0,0,0,9.942L670.363,185h27.274l1.817-4.2a12.538,12.538,0,0,0,0-9.942Zm-28.13-3.688-0.03-.059a8.127,8.127,0,0,1,0-7.215l1.771-3.553V142.467h24.852v10.439l1.77,3.554a8.125,8.125,0,0,1,0,7.214l-0.029.059H669.833Zm13.436,19.8H671.322l-1.436-3.314a11.069,11.069,0,0,1,0-8.772l1.436-3.314h0.062a11.918,11.918,0,0,1,11.885,11.927v3.473Zm-11.885-16.866H671.3l-0.731-1.467h26.872l-0.731,1.467h-0.088A13.367,13.367,0,0,0,684,175.688,13.37,13.37,0,0,0,671.384,166.667Zm26.73,13.553-1.437,3.313H684.731v-3.474a11.923,11.923,0,0,1,11.886-11.926h0.061l1.436,3.314A11.072,11.072,0,0,1,698.114,180.22ZM683.269,156.4h1.462v1.467h-1.462V156.4Zm-16.812-2.2h-1.89l0.945-.948a0.732,0.732,0,1,0-1.033-1.037l-2.193,2.2a0.734,0.734,0,0,0,0,1.037l2.193,2.2a0.728,0.728,0,0,0,1.033,0,0.734,0.734,0,0,0,0-1.037l-0.945-.948h1.89A0.734,0.734,0,0,0,666.457,154.2Zm39.257,0.215-2.193-2.2a0.732,0.732,0,1,0-1.033,1.037l0.945,0.948h-1.89a0.734,0.734,0,0,0,0,1.467h1.89l-0.945.948a0.734,0.734,0,0,0,.517,1.252,0.725,0.725,0,0,0,.516-0.215l2.193-2.2A0.734,0.734,0,0,0,705.714,154.415Z" transform="translate(-662.094 -141)"/>
</svg>
