<svg xmlns="http://www.w3.org/2000/svg" width="43" height="44.437" viewBox="0 0 43 44.437">
  <metadata><?xpacket begin="﻿" id="W5M0MpCehiHzreSzNTczkc9d"?>
<x:xmpmeta xmlns:x="adobe:ns:meta/" x:xmptk="Adobe XMP Core 5.6-c142 79.160924, 2017/07/13-01:06:39        ">
   <rdf:RDF xmlns:rdf="http://www.w3.org/1999/02/22-rdf-syntax-ns#">
      <rdf:Description rdf:about=""/>
   </rdf:RDF>
</x:xmpmeta>
                                                                                                    
                                                                                                    
                                                                                                    
                                                                                                    
                                                                                                    
                                                                                                    
                                                                                                    
                                                                                                    
                                                                                                    
                                                                                                    
                                                                                                    
                                                                                                    
                                                                                                    
                                                                                                    
                                                                                                    
                                                                                                    
                                                                                                    
                                                                                                    
                                                                                                    
                                                                                                    
                           
<?xpacket end="w"?></metadata>
<defs>
    <style>
      .cls-1 {
        fill: #fff;
        fill-rule: evenodd;
      }
    </style>
  </defs>
  <path id="Forma_1" data-name="Forma 1" class="cls-1" d="M672.259,161.166a15.759,15.759,0,0,0,.933,3.979c1.6,4.218,4.553,6.813,7.906,6.941,0.135,0,.276.009,0.423,0.009a5.549,5.549,0,0,0,1.979-.317,6.069,6.069,0,0,0,2.4.308c3.354-.128,6.309-2.723,7.906-6.941,1.277-3.371,1.605-8-.692-10.208a6.565,6.565,0,0,0-7.4-.938c-0.342.166-.639,0.3-0.9,0.4a10.951,10.951,0,0,1,1.34-2.952,8.18,8.18,0,0,0,7.634-1.516c2.687-2.057,4.017-5.24,3.307-7.919a1.014,1.014,0,0,0-.471-0.619c-2.391-1.393-5.8-.947-8.492,1.11-2.53,1.935-3.856,4.868-3.413,7.44a13.251,13.251,0,0,0-1.211,2.132,13.032,13.032,0,0,0-3.666-4.781,1.017,1.017,0,0,0-1.282,1.578,10.978,10.978,0,0,1,3.636,5.528c-0.264-.1-0.562-0.235-0.9-0.4a6.565,6.565,0,0,0-7.4.938c-1.429,1.371-1.842,3.682-1.643,6.044A1.044,1.044,0,0,0,672.259,161.166Zm17.1-17.045a6.14,6.14,0,0,1,5.854-1.163,6.174,6.174,0,0,1-2.662,5.355,6.581,6.581,0,0,1-5.03,1.411,10.94,10.94,0,0,1,4.467-2.788,1.018,1.018,0,0,0-.624-1.937,12.919,12.919,0,0,0-4.477,2.533A7.063,7.063,0,0,1,689.36,144.121Zm-11.411,24.606a10.313,10.313,0,0,1-2.859-4.3,13.555,13.555,0,0,1-.746-2.913,3.989,3.989,0,0,1,1.811-.43A4.037,4.037,0,0,1,677.949,168.727Zm-2.66-12.319a4.522,4.522,0,0,1,5.115-.577,5.892,5.892,0,0,0,6.192,0,4.522,4.522,0,0,1,5.115.577c1.33,1.276,1.417,4.8.2,8.015-1.3,3.429-3.573,5.533-6.085,5.629a3.507,3.507,0,0,1-1.836-.283,1.01,1.01,0,0,0-.977,0,3.514,3.514,0,0,1-1.835.283,4.722,4.722,0,0,1-1.224-.209,6.068,6.068,0,0,0-5.7-10.492A4.483,4.483,0,0,1,675.289,156.408Zm29.376,11.248a1.015,1.015,0,0,0-.91-0.567h-6.6a1.018,1.018,0,0,0,0,2.035h5.809c-0.084.854-1.5,2.213-5.276,3.365a57.26,57.26,0,0,1-28.379,0c-3.776-1.152-5.192-2.511-5.276-3.365h5.809a1.018,1.018,0,0,0,0-2.035h-6.6a1.016,1.016,0,0,0-.91.566,3.12,3.12,0,0,0-.335,1.389c0,2.187,2.324,4.051,6.719,5.392a51.572,51.572,0,0,0,13.766,1.867v1.956h-9.227a4.44,4.44,0,0,0-4.43,4.44v1.283A1.017,1.017,0,0,0,669.843,185h27.314a1.017,1.017,0,0,0,1.015-1.018V182.7a4.44,4.44,0,0,0-4.43-4.44h-9.227V176.3a51.558,51.558,0,0,0,13.765-1.867c4.4-1.341,6.72-3.205,6.72-5.392A3.126,3.126,0,0,0,704.665,167.656Zm-10.923,12.638a2.4,2.4,0,0,1,2.4,2.405v0.266H670.858V182.7a2.4,2.4,0,0,1,2.4-2.405h20.485Z" transform="translate(-662 -140.563)"/>
</svg>
