<svg xmlns="http://www.w3.org/2000/svg" width="39" height="34.657"><path data-name="Forma 1 copy 2" d="M25.606 4.516a.754.754 0 1 0 .761.753.757.757 0 0 0-.761-.753zm7.631 12.6C32.372 14.048 28.602 9.23 29.071.79a.753.753 0 0 0-.208-.56.767.767 0 0 0-.553-.235H10.712a.767.767 0 0 0-.553.235.748.748 0 0 0-.207.56c.466 8.4-3.293 13.268-4.172 16.32-1.59 5.5 1 12.609 4.638 17.259a.764.764 0 0 0 .6.293h16.984a.765.765 0 0 0 .6-.293c3.462-4.426 6.171-11.823 4.635-17.254zM9.491 12.367a27.38 27.38 0 0 0 2.016-10.865h16.01a27.4 27.4 0 0 0 2.015 10.864q.091.227.19.459a24.359 24.359 0 0 1-20.42 0c.065-.154.128-.306.189-.459zm9.259 20.787H11.4c-3.923-5.189-5.094-11.077-4.344-14.847 4.125 1.567 8.033 4.943 11.694 7.686v7.161zM7.468 16.849a21.8 21.8 0 0 1 .933-2.086c.091-.184.182-.372.275-.564a25.9 25.9 0 0 0 21.672 0q.138.288.273.562a20.877 20.877 0 0 1 .932 2.089c-4.354 1.622-8.457 5.125-12.041 7.824-3.6-2.711-7.689-6.205-12.044-7.826zm20.155 16.305h-7.349v-7.16c3.687-2.763 7.571-6.117 11.681-7.682.906 4.761-1.455 10.996-4.332 14.841zm-.155-22.01a30.046 30.046 0 0 1-.832-3.031.762.762 0 0 0-.9-.578.754.754 0 0 0-.584.9 31.452 31.452 0 0 0 .873 3.182.763.763 0 0 0 .961.482.752.752 0 0 0 .482-.956zm10.782-5.12h-4.712l1.747-1.728a.749.749 0 0 0 0-1.066.768.768 0 0 0-1.077 0l-3.047 3.015a.746.746 0 0 0 0 1.065l3.047 3.015a.768.768 0 0 0 1.077 0 .749.749 0 0 0 0-1.066l-1.747-1.728h4.712a.754.754 0 1 0 0-1.508zm-30.387.221L4.812 3.229a.768.768 0 0 0-1.077 0 .748.748 0 0 0 0 1.066l1.747 1.728H.77a.754.754 0 1 0 0 1.507h4.712L3.735 9.258a.749.749 0 0 0 0 1.066.768.768 0 0 0 1.077 0L7.859 7.31a.747.747 0 0 0 .004-1.066z" fill="#fff" fill-rule="evenodd"/></svg>