<svg xmlns="http://www.w3.org/2000/svg" width="26" height="25" viewBox="0 0 26 25">
  <metadata><?xpacket begin="﻿" id="W5M0MpCehiHzreSzNTczkc9d"?>
<x:xmpmeta xmlns:x="adobe:ns:meta/" x:xmptk="Adobe XMP Core 5.6-c142 79.160924, 2017/07/13-01:06:39        ">
   <rdf:RDF xmlns:rdf="http://www.w3.org/1999/02/22-rdf-syntax-ns#">
      <rdf:Description rdf:about=""/>
   </rdf:RDF>
</x:xmpmeta>
                                                                                                    
                                                                                                    
                                                                                                    
                                                                                                    
                                                                                                    
                                                                                                    
                                                                                                    
                                                                                                    
                                                                                                    
                                                                                                    
                                                                                                    
                                                                                                    
                                                                                                    
                                                                                                    
                                                                                                    
                                                                                                    
                                                                                                    
                                                                                                    
                                                                                                    
                                                                                                    
                           
<?xpacket end="w"?></metadata>
<defs>
    <style>
      .cls-1 {
        fill: #7cb744;
        fill-rule: evenodd;
      }
    </style>
  </defs>
  <path id="Forma_1" data-name="Forma 1" class="cls-1" d="M738.791,422H721.209A4.135,4.135,0,0,0,717,426.047v16.906A4.135,4.135,0,0,0,721.209,447h17.582A4.135,4.135,0,0,0,743,442.953V426.047A4.135,4.135,0,0,0,738.791,422Zm-17.458.862h17.334a3.85,3.85,0,0,1,3.466,3.448v3.449h-5.2c-1.985,0-2.321.328-2.817,1.032-0.531.754-1.079,1.534-4.116,1.534s-3.586-.78-4.116-1.534c-0.5-.7-0.833-1.032-2.817-1.032h-5.2v-4.311C717.867,423.829,719.65,422.862,721.333,422.862Zm17.334,23.276H721.333a3.85,3.85,0,0,1-3.466-3.448V430.621h5.2c1.371,0,1.43.182,1.86,0.793,0.634,0.9,1.423,2.022,5.073,2.022s4.439-1.121,5.073-2.022c0.43-.611.489-0.793,1.86-0.793h5.2V442.69A3.85,3.85,0,0,1,738.667,446.138ZM727.489,429.71a0.582,0.582,0,0,0,.511.3h4a0.579,0.579,0,0,0,.511-0.3l2-3.644a0.538,0.538,0,0,0-.1-0.647,7.86,7.86,0,0,0-8.824,0,0.538,0.538,0,0,0-.1.647Zm-0.067-4.092,0.347,1.243a0.573,0.573,0,0,0,.557.411,0.593,0.593,0,0,0,.15-0.019,0.554,0.554,0,0,0,.409-0.68l-0.354-1.269a7.5,7.5,0,0,1,.891-0.11v1.25a0.578,0.578,0,0,0,1.156,0v-1.25a7.5,7.5,0,0,1,.891.11l-0.354,1.269a0.553,0.553,0,0,0,.409.68,0.593,0.593,0,0,0,.15.019,0.573,0.573,0,0,0,.557-0.411l0.347-1.243a4.382,4.382,0,0,1,.685.34l-1.612,2.937h-0.619l-0.5-1.2a0.586,0.586,0,0,0-1.082.02l-0.431,1.179h-0.675l-1.612-2.936A4.286,4.286,0,0,1,727.422,425.618Z" transform="translate(-717 -422)"/>
</svg>
